<svg version="1.2" xmlns="http://www.w3.org/2000/svg" viewBox="0 0 217 46" width="217" height="46"><style>tspan{white-space:pre}.a{fill:#5f6fff}.b{font-size: 43px;fill: #353966;font-weight: 400;font-family: "DejaVuSans", "DejaVu Sans"}</style><path class="a" d="m174 0c12.7 0 23 10.3 23 23v16.1c0 1.8-0.7 3.6-2 4.9-1.3 1.3-3.1 2-4.9 2h-15v-10.1c0-2.3 0.2-4.7 1.4-6.6 0.9-1.4 2-2.6 3.4-3.6 1.4-0.9 2.9-1.5 4.5-1.8h0.5q0.3-0.1 0.4-0.4 0.2-0.2 0.2-0.5 0-0.3-0.2-0.5-0.1-0.3-0.4-0.4h-0.5c-2.3-0.4-4.5-1.6-6.2-3.3-1.7-1.7-2.9-3.9-3.3-6.2v-0.5q-0.1-0.3-0.4-0.4-0.2-0.2-0.5-0.2-0.3 0-0.5 0.2-0.3 0.1-0.4 0.4v0.5c-0.3 1.6-0.9 3.1-1.8 4.5-1 1.4-2.2 2.5-3.6 3.4-1.9 1.2-4.3 1.3-6.6 1.3h-10.1c0.6-12.1 10.7-21.8 23-21.8z"/><path class="a" d="m151 24.1h10.1c2.3 0 4.7 0.2 6.6 1.4 1.6 0.9 2.9 2.2 3.8 3.8 1.2 1.9 1.3 4.3 1.3 6.6v10.1h-14.9c-1.8 0-3.6-0.7-4.9-2-1.3-1.3-2-3.1-2-4.9zm46-21.8c0 0.6-0.2 1.1-0.7 1.6-0.4 0.4-1 0.7-1.6 0.7-0.6 0-1.2-0.3-1.6-0.7-0.5-0.5-0.7-1-0.7-1.6 0-0.7 0.2-1.2 0.7-1.7 0.4-0.4 1-0.6 1.6-0.6 0.6 0 1.2 0.2 1.6 0.6 0.5 0.5 0.7 1 0.7 1.7z"/><text transform="translate(59.4,13.1)"></text><text transform="translate(92.5,20.2)"></text><text transform="translate(70,25)"></text><text transform="translate(126,20.2)"></text><text style="transform:matrix(.835,0,0,.835,54,37.407)"><tspan x="74" y="0" class="b">ط</tspan><tspan  y="0" class="b">ب</tspan><tspan  y="0" class="b">ي</tspan><tspan  y="0" class="b">ب</tspan><tspan  y="0" class="b">ى</tspan><tspan  y="0" class="b">
</tspan></text></svg>